<?xml version="1.0" encoding="utf-8"?>
<!-- Generator: Adobe Illustrator 19.0.1, SVG Export Plug-In . SVG Version: 6.00 Build 0)  -->
<svg version="1.1" id="Layer_1" xmlns="http://www.w3.org/2000/svg" xmlns:xlink="http://www.w3.org/1999/xlink" x="0px" y="0px"
	 viewBox="0 0 459.8 185.4" enable-background="new 0 0 459.8 185.4" xml:space="preserve">
<g>
	<path fill="#00A5E5" d="M134.8,0v155.9c0,0,0,5.7,5.7,5.7h147.4c0,0,5.7,0,5.7-5.7V0H134.8z"/>
	<path fill="#DCDBDB" d="M459.8,115.8v-11h-16.3V84.9c-2.3,0.9-13.9,5-13.9,5v14.9h-10.8v11h10.8v30.4c0,15.4,8.2,15.4,17.5,15.4
		h11.6v-10.9h-9.8c-2.7,0-5.4-1-5.4-5.4v-29.4H459.8z M403.1,128h-22.6c0-7.7,3.1-14.5,11.3-14.5C401.4,113.5,403.1,120.7,403.1,128
		 M395.7,162.9c10,0,18.9-2.3,18.9-2.3v-9.7c-4.6,1-9.2,1.9-15.4,1.9c-9,0-17.8-2.6-18.7-15.4h38.3c0.4-22.7-6.3-33.9-26.3-33.9
		c-18.3,0-27.3,11.7-27.3,30.2C365.3,155.6,378.9,162.9,395.7,162.9 M344.7,150.9c-3.2,0.4-6,0.6-9.2,0.5
		c-10.3-0.3-13.2-9.9-13.2-17.9c0-10.7,3.7-18.8,14.3-18.8c4,0,8,0.4,8,0.4V150.9z M359.1,160.2V80.3h-14.4v24
		c-3.9-0.4-7.2-0.5-9.1-0.5c-17.3,0-28.1,11.7-28.1,29.8c0,19.4,13.5,28.9,30.6,28.9C345.6,162.5,355.6,161.1,359.1,160.2
		 M287.5,152.3c-2.8,0.4-5.3,0.7-8.3,0.7c-6,0-11.3-0.4-11.3-8c0-7.6,5.3-8,11.3-8c1.5,0,6.5,0,8.3,0.1V152.3z M301.9,161.4v-38.9
		c0-17.5-14.1-19.1-26.9-18.9c-5.7,0-14.3,1-18.8,2.1v10.7c3.7-0.9,10.9-2.1,18-2.1c13.1,0,13.2,4,13.2,12.9h-3.6
		c-14.4,0-31.2,0.6-31.2,17.2c0,15.8,11.7,18.2,24.6,18.4h3.5C287.5,162.8,294.1,162.4,301.9,161.4 M247.6,80.4h-14.4v81.2h14.4
		V80.4z M212.2,133.7c0,8.1-3,17.6-13,18c-3.2,0.1-6-0.2-9.2-0.7v-35.8c0,0,4.1-0.4,8-0.4C208.6,114.8,212.2,123,212.2,133.7
		 M227,133.6c0-19.3-10.7-29.7-27.6-29.7c-1.7,0-5.1,0-9.4,0.6V80.4h-14.5v80.1c6.2,1.5,16.1,2.2,20.9,2.2
		C213.7,162.7,227,153,227,133.6 M143.8,133.7c-5.6,0-8.6-2.3-8.6-10.1c0-7.7,3.1-10,8.6-10c5.7,0,8.8,2.3,8.8,10.1
		C152.5,131.4,149.5,133.7,143.8,133.7 M173.3,113.5v-9.5l-22.4,0.9c-1.4-0.3-3.2-0.9-7.6-0.9c-11.7,0-22.6,6.1-22.6,18.9
		c0,11.8,7,15.8,8.5,16.6c-2.1,2.2-7.8,5.8-7.8,12.9c0,20.4,36.1,6.1,36.1,16.6c0,4.9-7.4,6.8-15.4,6.8c-7.7,0-18.5-2.6-18.5-2.6
		v10.1c2.1,0.5,7.5,2.3,20.8,2.3c15,0,27.9-5,27.9-18.8c0-13.6-12.7-14.4-23.4-14.4h-4c-5.8,0-10.3-0.2-10.3-3.2c0-2.7,2.4-5,3.9-6
		c0,0,1.4,0.5,4.6,0.5c18.5,0,23.3-11.3,23.3-18.7c0-7.6-3.1-10.8-4.3-12C165.6,112.8,169.8,113.3,173.3,113.5 M99.8,152.3
		c-2.8,0.4-5.3,0.7-8.3,0.7c-6,0-11.3-0.4-11.3-8c0-7.6,5.3-8,11.3-8c1.5,0,6.5,0,8.3,0.1V152.3z M114.2,161.4v-38.9
		c0-17.5-14.1-19.1-26.9-18.9c-5.7,0-14.3,1-18.8,2.1v10.7c3.7-0.9,10.9-2.1,18-2.1c13.1,0,13.2,4,13.2,12.9h-3.6
		c-14.4,0-31.2,0.6-31.2,17.2c0,15.8,11.7,18.2,24.6,18.4h3.5C99.8,162.8,106.4,162.4,114.2,161.4 M46.7,123.7
		c0,28-15,26.4-22.6,26.4h-9.5V97.2h9.5C31.7,97.2,46.7,95.8,46.7,123.7 M62.4,123.7c0-36.5-23.3-37.9-36.9-37.9H0v75.8h25.2
		C38.9,161.6,62.4,160.3,62.4,123.7"/>
</g>
</svg>
