<?xml version="1.0" encoding="utf-8"?>
<!-- Generator: Adobe Illustrator 19.0.1, SVG Export Plug-In . SVG Version: 6.00 Build 0)  -->
<svg version="1.1" id="Layer_1" xmlns="http://www.w3.org/2000/svg" xmlns:xlink="http://www.w3.org/1999/xlink" x="0px" y="0px"
	 viewBox="0 0 459.8 184.4" enable-background="new 0 0 459.8 184.4" xml:space="preserve">
<g>
	<path fill="#00A5E5" d="M134.8,0v154.9c0,0,0,5.7,5.7,5.7h147.4c0,0,5.7,0,5.7-5.7V0H134.8z"/>
	<path fill="#DCDBDB" d="M283.7,72.3V61.2c0-3.7-2.4-4.9-4.6-4.9c-2,0-4,0.8-5.7,1.7v-1.4h-3.6v15.8h4V60.6c0.4-0.2,2.3-0.9,3.7-0.9
		c2,0,2.1,1.5,2.1,2.3v10.3H283.7z M268.7,59.8v-3.5c-1.4,0-3.1-0.1-5.8,1.6c0,0,0-1.4,0-1.4h-3.6v15.8h4V60.9
		C264.8,59.8,267.3,59.8,268.7,59.8 M253.1,62.9h-6.3c0-2.1,0.9-4,3.1-4C252.6,58.9,253.1,60.9,253.1,62.9 M251.1,72.6
		c2.8,0,5.3-0.6,5.3-0.6v-2.7c-1.3,0.3-2.6,0.5-4.3,0.5c-2.5,0-5-0.7-5.2-4.3h10.7c0.1-6.3-1.8-9.4-7.3-9.4c-5.1,0-7.6,3.3-7.6,8.4
		C242.6,70.6,246.4,72.6,251.1,72.6 M240.6,49.7h-4v4h4V49.7z M240.6,71.1V56.4h-4v15.3c0,1.3-0.2,1.9-0.9,2.6l-2.4,2.4
		c0.5,0.6,1.6,1.7,2.1,2.2c3.2-3.1,3.5-3.3,3.5-3.3C240.3,74.2,240.6,72.9,240.6,71.1 M235.9,72.3l-7.1-8.7l6.7-7.2h-4.8l-6,6.8
		V49.7h-4v22.6h4v-8.2l6,8.2H235.9z M210.4,72.6c3.9,0,8.5-1.6,8.5-6.6c0-8-10.6-4.6-10.6-9.3c0-2.2,2.9-2.7,4.4-2.7
		c2.4,0,4.7,0.6,4.7,0.6v-3.3c0,0-2.4-0.6-5.1-0.6c-4.4,0-8.3,1.5-8.3,6.5c0,7.5,10.5,4.9,10.5,9.1c0,2.4-2.8,3-4.5,3
		c-2.6,0-5.9-0.9-5.9-0.9v3.4C204.1,71.9,206.8,72.6,210.4,72.6"/>
	<path fill="#DCDBDB" d="M277.5,37.9c-1.6,0-2.4-0.6-2.4-2.8c0-2.1,0.8-2.8,2.4-2.8c1.6,0,2.4,0.6,2.4,2.8
		C279.9,37.2,279.1,37.9,277.5,37.9 M285.7,32.2v-2.7l-6.2,0.2c-0.4-0.1-0.9-0.2-2.1-0.2c-3.3,0-6.3,1.7-6.3,5.3
		c0,3.3,2,4.4,2.4,4.6c-0.6,0.6-2.2,1.6-2.2,3.6c0,5.7,10.1,1.7,10.1,4.6c0,1.4-2.1,1.9-4.3,1.9c-2.2,0-5.2-0.7-5.2-0.7v2.8
		c0.6,0.2,2.1,0.6,5.8,0.6c4.2,0,7.8-1.4,7.8-5.2c0-3.8-3.5-4-6.5-4h-1.1c-1.6,0-2.9-0.1-2.9-0.9c0-0.8,0.7-1.4,1.1-1.7
		c0,0,0.4,0.2,1.3,0.2c5.2,0,6.5-3.1,6.5-5.2c0-2.1-0.9-3-1.2-3.3C283.6,32.1,284.7,32.2,285.7,32.2 M268.9,45.7V34.5
		c0-3.7-2.4-4.9-4.6-4.9c-2,0-4,0.8-5.7,1.7v-1.4H255v15.8h4V33.9c0.4-0.2,2.3-0.9,3.7-0.9c2,0,2.1,1.5,2.1,2.3v10.3H268.9z
		 M252.2,23h-4v4h4V23z M252.2,29.8h-4v15.8h4V29.8z M242.1,37.9c0,2.3-0.8,4.9-3.6,5c-0.9,0-1.7-0.1-2.6-0.2v-10
		c0,0,1.1-0.1,2.2-0.1C241,32.6,242.1,34.9,242.1,37.9 M246.2,37.9c0-5.4-3-8.3-7.7-8.3c-0.5,0-1.4,0-2.6,0.2V23h-4v22.3
		c1.7,0.4,4.5,0.6,5.8,0.6C242.5,46,246.2,43.3,246.2,37.9 M224.2,33.1l-5.7,7.3c-0.2-0.7-0.3-1.6-0.3-2.6c0-3.5,0.9-5.3,3.7-5.3
		C222.9,32.5,223.6,32.7,224.2,33.1 M225.6,37.8c0,3.5-0.9,5.3-3.7,5.3c-1,0-1.8-0.2-2.3-0.7l5.8-7.3
		C225.6,35.8,225.6,36.7,225.6,37.8 M229.8,37.7c0-5-2.9-8.3-7.9-8.3c-5,0-7.9,3.2-7.9,8.3c0,4.9,2.9,8.3,7.9,8.3
		C226.6,46,229.8,42.7,229.8,37.7 M215.3,45.7l-7.1-8.7l6.7-7.1h-4.8l-6,6.8V23h-4v22.6h4v-8.2l6,8.2H215.3z M190.9,37.9
		c-1.6,0-2.4-0.6-2.4-2.8c0-2.1,0.9-2.8,2.4-2.8c1.6,0,2.4,0.6,2.4,2.8C193.4,37.2,192.5,37.9,190.9,37.9 M199.2,32.2v-2.7l-6.2,0.2
		c-0.4-0.1-0.9-0.2-2.1-0.2c-3.3,0-6.3,1.7-6.3,5.3c0,3.3,2,4.4,2.4,4.6c-0.6,0.6-2.2,1.6-2.2,3.6c0,5.7,10.1,1.7,10.1,4.6
		c0,1.4-2.1,1.9-4.3,1.9c-2.2,0-5.2-0.7-5.2-0.7v2.8c0.6,0.2,2.1,0.6,5.8,0.6c4.2,0,7.8-1.4,7.8-5.2c0-3.8-3.5-4-6.5-4h-1.1
		c-1.6,0-2.9-0.1-2.9-0.9c0-0.8,0.7-1.4,1.1-1.7c0,0,0.4,0.2,1.3,0.2c5.2,0,6.5-3.1,6.5-5.2c0-2.1-0.9-3-1.2-3.3
		C197,32.1,198.2,32.2,199.2,32.2 M182.3,45.7V34.5c0-3.7-2.4-4.9-4.6-4.9c-2,0-4,0.8-5.7,1.7v-1.4h-3.6v15.8h4V33.9
		c0.4-0.2,2.3-0.9,3.7-0.9c2,0,2.1,1.5,2.1,2.3v10.3H182.3z M165.7,23h-4v4h4V23z M165.7,29.8h-4v15.8h4V29.8z M154.2,31.1
		c0,2.7-1.2,3.5-3.7,3.5H148v-7.1h2.6C153,27.6,154.2,28.4,154.2,31.1 M160.3,45.7l-5.8-8.7l0.1-0.2c2.6-1,3.9-3.1,3.9-5.7
		c0-4.8-2.9-6.5-7.4-6.5H144v21.1h4.1v-7.9h2.4l4.8,7.9H160.3z"/>
	<path fill="#DCDBDB" d="M459.8,114.8v-11h-16.3V83.9c-2.3,0.9-13.9,5-13.9,5v14.9h-10.8v11h10.8v30.4c0,15.4,8.2,15.4,17.5,15.4
		h11.6v-10.9h-9.8c-2.7,0-5.4-1-5.4-5.4v-29.4H459.8z M403.1,126.9h-22.6c0-7.7,3.1-14.5,11.3-14.5
		C401.4,112.4,403.1,119.7,403.1,126.9 M395.7,161.9c10,0,18.9-2.3,18.9-2.3v-9.7c-4.6,1-9.2,1.9-15.4,1.9c-9,0-17.8-2.6-18.7-15.4
		h38.3c0.4-22.7-6.3-33.9-26.3-33.9c-18.3,0-27.3,11.7-27.3,30.2C365.3,154.5,378.9,161.9,395.7,161.9 M344.7,149.9
		c-3.2,0.4-6,0.6-9.2,0.5c-10.3-0.3-13.2-9.9-13.2-17.9c0-10.7,3.7-18.8,14.3-18.8c4,0,8,0.4,8,0.4V149.9z M359.1,159.2V79.3h-14.4
		v24c-3.9-0.4-7.2-0.5-9.1-0.5c-17.3,0-28.1,11.7-28.1,29.8c0,19.4,13.5,28.9,30.6,28.9C345.6,161.5,355.6,160.1,359.1,159.2
		 M287.5,151.3c-2.8,0.4-5.3,0.7-8.3,0.7c-6,0-11.3-0.4-11.3-8c0-7.6,5.3-8,11.3-8c1.5,0,6.5,0,8.3,0.1V151.3z M301.9,160.4v-38.9
		c0-17.5-14.1-19.1-26.9-18.9c-5.7,0-14.3,1-18.8,2.1v10.7c3.7-0.9,10.9-2.1,18-2.1c13.1,0,13.2,4,13.2,12.9h-3.6
		c-14.4,0-31.2,0.6-31.2,17.2c0,15.8,11.7,18.2,24.6,18.4h3.5C287.5,161.8,294.1,161.4,301.9,160.4 M247.6,79.4h-14.4v81.2h14.4
		V79.4z M212.2,132.7c0,8.1-3,17.6-13,18c-3.2,0.1-6-0.2-9.2-0.7v-35.8c0,0,4.1-0.4,8-0.4C208.6,113.7,212.2,122,212.2,132.7
		 M227,132.6c0-19.3-10.7-29.7-27.6-29.7c-1.7,0-5.1,0-9.4,0.6V79.4h-14.5v80.1c6.2,1.5,16.1,2.2,20.9,2.2
		C213.7,161.7,227,151.9,227,132.6 M143.8,132.7c-5.6,0-8.6-2.3-8.6-10.1c0-7.7,3.1-10,8.6-10c5.7,0,8.8,2.3,8.8,10.1
		C152.5,130.4,149.5,132.7,143.8,132.7 M173.3,112.4v-9.5l-22.4,0.9c-1.4-0.3-3.2-0.9-7.6-0.9c-11.7,0-22.6,6.1-22.6,18.9
		c0,11.8,7,15.8,8.5,16.6c-2.1,2.2-7.8,5.8-7.8,12.9c0,20.4,36.1,6.1,36.1,16.6c0,4.9-7.4,6.8-15.4,6.8c-7.7,0-18.5-2.6-18.5-2.6
		v10.1c2.1,0.5,7.5,2.3,20.8,2.3c15,0,27.9-5,27.9-18.8c0-13.6-12.7-14.4-23.4-14.4h-4c-5.8,0-10.3-0.2-10.3-3.2c0-2.7,2.4-5,3.9-6
		c0,0,1.4,0.5,4.6,0.5c18.5,0,23.3-11.3,23.3-18.7c0-7.6-3.1-10.8-4.3-12C165.6,111.8,169.8,112.3,173.3,112.4 M99.8,151.3
		c-2.8,0.4-5.3,0.7-8.3,0.7c-6,0-11.3-0.4-11.3-8c0-7.6,5.3-8,11.3-8c1.5,0,6.5,0,8.3,0.1V151.3z M114.2,160.4v-38.9
		c0-17.5-14.1-19.1-26.9-18.9c-5.7,0-14.3,1-18.8,2.1v10.7c3.7-0.9,10.9-2.1,18-2.1c13.1,0,13.2,4,13.2,12.9h-3.6
		c-14.4,0-31.2,0.6-31.2,17.2c0,15.8,11.7,18.2,24.6,18.4h3.5C99.8,161.8,106.4,161.4,114.2,160.4 M46.7,122.7
		c0,28-15,26.4-22.6,26.4h-9.5V96.2h9.5C31.7,96.2,46.7,94.8,46.7,122.7 M62.4,122.7c0-36.5-23.3-37.9-36.9-37.9H0v75.8h25.2
		C38.9,160.6,62.4,159.3,62.4,122.7"/>
</g>
</svg>
