<?xml version="1.0" encoding="utf-8"?>
<!-- Generator: Adobe Illustrator 19.0.1, SVG Export Plug-In . SVG Version: 6.00 Build 0)  -->
<svg version="1.1" id="Layer_1" xmlns="http://www.w3.org/2000/svg" xmlns:xlink="http://www.w3.org/1999/xlink" x="0px" y="0px"
	 viewBox="0 0 523.2 161.9" enable-background="new 0 0 523.2 161.9" xml:space="preserve">
<rect x="130.9" fill="#00A5E5" width="158.7" height="160.6"/>
<g>
	<path fill="#DCDBDB" d="M267,61.1c-2.4,0-3.7-1-3.7-4.3c0-3.3,1.3-4.2,3.7-4.2c2.4,0,3.7,1,3.7,4.3C270.7,60.2,269.4,61.1,267,61.1
		 M279.6,52.5v-4.1l-9.5,0.4c-0.6-0.1-1.3-0.4-3.3-0.4c-5,0-9.6,2.6-9.6,8.1c0,5,3,6.7,3.6,7.1c-0.9,0.9-3.3,2.5-3.3,5.5
		c0,8.7,15.4,2.6,15.4,7.1c0,2.1-3.2,2.9-6.5,2.9c-3.3,0-7.9-1.1-7.9-1.1v4.3c0.9,0.2,3.2,1,8.8,1c6.4,0,11.9-2.1,11.9-8
		c0-5.8-5.4-6.1-10-6.1h-1.7c-2.5,0-4.4-0.1-4.4-1.4c0-1.2,1-2.1,1.6-2.5c0,0,0.6,0.2,2,0.2c7.9,0,9.9-4.8,9.9-8
		c0-3.2-1.3-4.6-1.8-5.1C276.3,52.2,278.1,52.5,279.6,52.5 M254,38.4h-6.2v6h6.2V38.4z M254,48.8h-6.2V73h6.2V48.8z M246.7,48.8
		h-5.8l-5.4,18.9h-0.3l-5.3-18.9h-6.5l8.2,24.2h6.8L246.7,48.8z M222.9,73V56c0-5.9-4.1-7.6-7.5-7.6c-2.7,0-5.8,1.4-8,2.5
		c-1.3-1.8-3.5-2.5-5.4-2.5c-2.6,0-5.1,1.4-7.2,2.5v-2.2h-5.6V73h6.2V54.6c0.9-0.4,2.1-0.9,4.1-0.9c2.9,0,3.3,2.1,3.3,3.6V73h6.2
		V54.6c0.7-0.3,2.3-0.9,4.5-0.9c3,0,3.3,2.4,3.3,3.6V73H222.9z M180,58.7h-9.6c0-3.3,1.3-6.2,4.8-6.2C179.3,52.5,180,55.6,180,58.7
		 M176.9,73.6c4.2,0,8.1-1,8.1-1v-4.2c-2,0.4-3.9,0.8-6.5,0.8c-3.8,0-7.6-1.1-8-6.6h16.3c0.2-9.7-2.7-14.4-11.2-14.4
		c-7.8,0-11.6,5-11.6,12.9C163.9,70.5,169.7,73.6,176.9,73.6 M163.7,73v-5.2h-13.1V40.7h-6.4V73H163.7z"/>
	<path fill="#DCDBDB" d="M523.2,114.8v-11h-16.3V83.8c-2.3,0.9-13.9,5-13.9,5v14.9h-10.8v11h10.8v30.4c0,15.4,8.2,15.4,17.5,15.4
		H522v-10.9h-9.8c-2.7,0-5.4-1-5.4-5.4v-29.4H523.2z M466.5,126.9h-22.6c0-7.7,3.1-14.5,11.3-14.5
		C464.8,112.4,466.5,119.6,466.5,126.9 M459.1,161.9c10,0,18.9-2.3,18.9-2.3v-9.7c-4.6,1-9.2,1.9-15.4,1.9c-9,0-17.8-2.6-18.7-15.4
		h38.3c0.4-22.7-6.3-33.9-26.3-33.9c-18.3,0-27.3,11.7-27.3,30.2C428.7,154.5,442.3,161.9,459.1,161.9 M408.1,149.8
		c-3.2,0.4-6,0.6-9.2,0.5c-10.3-0.3-13.2-9.9-13.2-17.9c0-10.7,3.7-18.8,14.3-18.8c4,0,8,0.4,8,0.4V149.8z M422.5,159.2V79.3h-14.4
		v24c-3.9-0.4-7.2-0.5-9.1-0.5c-17.3,0-28.1,11.7-28.1,29.8c0,19.4,13.5,28.9,30.6,28.9C409,161.4,419,160,422.5,159.2 M350.9,151.2
		c-2.8,0.4-5.3,0.7-8.3,0.7c-6,0-11.3-0.4-11.3-8c0-7.6,5.3-8,11.3-8c1.5,0,6.5,0,8.3,0.1V151.2z M365.3,160.3v-38.9
		c0-17.5-14.1-19.1-26.9-18.9c-5.7,0-14.3,1-18.8,2.1v10.7c3.7-0.9,10.9-2.1,18-2.1c13.1,0,13.2,4,13.2,12.9h-3.6
		c-14.4,0-31.2,0.6-31.2,17.2c0,15.8,11.7,18.2,24.6,18.4h3.5C350.9,161.8,357.5,161.3,365.3,160.3 M311,79.4h-14.4v81.2H311V79.4z
		 M275.6,132.6c0,8.1-3,17.6-13,18c-3.2,0.1-6-0.2-9.2-0.7v-35.8c0,0,4.1-0.4,8-0.4C272,113.7,275.6,121.9,275.6,132.6 M290.4,132.5
		c0-19.3-10.7-29.7-27.6-29.7c-1.7,0-5.1,0-9.4,0.6V79.4H239v80.1c6.2,1.5,16.1,2.2,20.9,2.2C277.1,161.6,290.4,151.9,290.4,132.5
		 M217.8,126.9h-22.6c0-7.7,3.1-14.5,11.3-14.5C216.1,112.4,217.8,119.6,217.8,126.9 M210.4,161.9c10,0,18.9-2.3,18.9-2.3v-9.7
		c-4.6,1-9.2,1.9-15.4,1.9c-9,0-17.8-2.6-18.7-15.4h38.3c0.4-22.7-6.3-33.9-26.3-33.9c-18.3,0-27.3,11.7-27.3,30.2
		C180,154.5,193.6,161.9,210.4,161.9 M185.4,160.6L160,129.4l23.9-25.7h-17.3l-21.4,24.4V79.4h-14.4v81.2h14.4v-29.3l21.4,29.3
		H185.4z M122.3,79.4h-14.4v81.2h14.4V79.4z M86.7,132.3c0,12.4-3.3,19.1-13.3,19.1c-10.2,0-13.4-6.6-13.4-19.1
		c0-12.6,3.3-19.2,13.4-19.2C83.4,113.1,86.7,119.7,86.7,132.3 M101.7,132.1c0-18.1-10.6-29.7-28.3-29.7c-18,0-28.5,11.6-28.5,29.7
		c0,17.6,10.4,29.7,28.5,29.7C89.9,161.8,101.7,149.7,101.7,132.1 M47.5,96.9V84.8H0v75.8h15v-30.7h23.6v-12H15V96.9H47.5z"/>
</g>
</svg>
