<?xml version="1.0" encoding="utf-8"?>
<!-- Generator: Adobe Illustrator 19.0.1, SVG Export Plug-In . SVG Version: 6.00 Build 0)  -->
<svg version="1.1" id="Layer_1" xmlns="http://www.w3.org/2000/svg" xmlns:xlink="http://www.w3.org/1999/xlink" x="0px" y="0px"
	 viewBox="0 0 415.6 161.9" enable-background="new 0 0 415.6 161.9" xml:space="preserve">
<rect x="90.6" fill="#00A5E5" width="158.7" height="160.6"/>
<g>
	<path fill="#DCDBDB" d="M225,56.8c-2.6,0-4-1-4-4.6c0-3.5,1.4-4.6,4-4.6c2.6,0,4,1,4,4.6C229,55.8,227.6,56.8,225,56.8 M238.6,47.5
		v-4.4l-10.3,0.4c-0.7-0.1-1.4-0.4-3.5-0.4c-5.4,0-10.4,2.8-10.4,8.7c0,5.4,3.2,7.3,3.9,7.6c-1,1-3.6,2.7-3.6,5.9
		c0,9.3,16.6,2.8,16.6,7.6c0,2.2-3.4,3.1-7.1,3.1c-3.5,0-8.5-1.2-8.5-1.2v4.6c1,0.2,3.5,1,9.5,1c6.9,0,12.8-2.3,12.8-8.6
		c0-6.3-5.8-6.6-10.7-6.6h-1.8c-2.7,0-4.7-0.1-4.7-1.5c0-1.2,1.1-2.3,1.8-2.7c0,0,0.7,0.2,2.1,0.2c8.5,0,10.7-5.2,10.7-8.6
		c0-3.5-1.4-5-2-5.5C235.1,47.2,237,47.5,238.6,47.5 M213.5,49.1v-5.8c-2.3,0-5.2-0.2-9.6,2.6c0,0,0-2.4,0-2.4h-5.9v26.1h6.6V50.8
		C207.1,49,211.1,49.1,213.5,49.1 M188.2,56.7c0,5.7-1.5,8.7-6.1,8.7c-4.7,0-6.2-3-6.2-8.7c0-5.8,1.5-8.8,6.2-8.8
		C186.7,47.9,188.2,50.9,188.2,56.7 M195.1,56.6c0-8.3-4.9-13.6-13-13.6c-8.3,0-13.1,5.3-13.1,13.6c0,8.1,4.8,13.6,13.1,13.6
		C189.7,70.2,195.1,64.7,195.1,56.6 M160.6,56.8c0,3.7-1.4,8.1-6,8.2c-1.4,0-2.8-0.1-4.2-0.3V48.3c0,0,1.9-0.2,3.7-0.2
		C158.9,48.1,160.6,51.9,160.6,56.8 M167.4,56.8c0-8.8-4.9-13.6-12.7-13.6c-0.8,0-2.3,0-4.3,0.3V32.4h-6.6v36.8c2.8,0.7,7.4,1,9.6,1
		C161.2,70.1,167.4,65.6,167.4,56.8 M139.5,32.4h-6.6v6.5h6.6V32.4z M139.5,43.5h-6.6v26.1h6.6V43.5z M120.5,69.6l11.1-34.8h-6.4
		L116.9,63h-0.6l-7.9-28.1h-7.3l11.1,34.8H120.5z"/>
	<path fill="#DCDBDB" d="M209.1,95.1c0-3-2.8-3.7-4.5-4c-1.3-0.3-3.2-0.5-3.2-1.8c0-1.3,1.8-1.5,2.9-1.5c1.7,0,3.5,0.4,3.9,0.5v-2.5
		c-0.6-0.1-2.1-0.4-4.6-0.4c-2.4,0-5.8,0.8-5.8,4.3c0,3.3,3.4,3.9,4.1,4.1c2.1,0.5,3.5,0.6,3.5,1.9c0,1.4-1.9,1.7-3.2,1.7
		c-1.6,0-3-0.3-4.3-0.7v2.6c1.3,0.3,3,0.6,4.8,0.6C206.6,99.8,209.1,98.1,209.1,95.1 M197.1,88.3v-2.7h-4v-4.9
		c-0.6,0.2-3.4,1.2-3.4,1.2v3.7h-2.7v2.7h2.7v7.5c0,3.8,2,3.8,4.3,3.8h2.9v-2.7h-2.4c-0.7,0-1.3-0.2-1.3-1.3v-7.2H197.1z
		 M186.6,88.2v-2.7h-4v-1c0-2.2,0.5-2.5,2.5-2.5h1.5v-2.6h-3.2c-1.1,0-2,0-2.9,0.7c-1.2,1-1.5,2.4-1.5,4v1.3h-2.5v2.7h2.5v11.3h3.6
		V88.2H186.6z M175.4,79.6h-3.6v3.5h3.6V79.6z M175.4,85.6h-3.6v14h3.6V85.6z M170.6,88.3v-2.7h-4v-4.9c-0.6,0.2-3.4,1.2-3.4,1.2
		v3.7h-2.7v2.7h2.7v7.5c0,3.8,2,3.8,4.3,3.8h2.9v-2.7h-2.4c-0.7,0-1.3-0.2-1.3-1.3v-7.2H170.6z M153.3,99.9c3.4,0,7.5-1.4,7.5-5.8
		c0-7.1-9.4-4.1-9.4-8.2c0-2,2.5-2.4,3.9-2.4c2.2,0,4.2,0.5,4.2,0.5v-2.9c0,0-2.1-0.5-4.5-0.5c-3.9,0-7.3,1.4-7.3,5.7
		c0,6.6,9.3,4.4,9.3,8.1c0,2.1-2.5,2.6-4,2.6c-2.3,0-5.2-0.8-5.2-0.8v3C147.8,99.2,150.2,99.9,153.3,99.9"/>
	<path fill="#DCDBDB" d="M401.4,150.1c-3.1,0.4-5.9,0.6-9,0.5c-10.1-0.3-13-9.7-13-17.6c0-10.5,3.6-18.5,14.1-18.5
		c3.9,0,7.9,0.4,7.9,0.4V150.1z M415.6,159.3V80.7h-14.2v23.6c-3.8-0.4-7.1-0.5-8.9-0.5c-17,0-27.6,11.5-27.6,29.3
		c0,19.1,13.3,28.4,30.1,28.4C402.3,161.5,412.1,160.1,415.6,159.3 M345.1,151.5c-2.8,0.4-5.2,0.6-8.2,0.6c-5.9,0-11.1-0.4-11.1-7.9
		c0-7.5,5.2-7.9,11.1-7.9c1.5,0,6.4,0,8.2,0.1V151.5z M359.4,160.4v-38.2c0-17.2-13.9-18.7-26.4-18.6c-5.6,0-14.1,1-18.5,2v10.5
		c3.6-0.9,10.7-2,17.7-2c12.9,0,13,3.9,13,12.7h-3.5c-14.2,0-30.7,0.6-30.7,16.9c0,15.5,11.5,17.9,24.2,18.1h3.4
		C345.1,161.8,351.6,161.4,359.4,160.4 M305.9,80.8h-14.2v79.9h14.2V80.8z M271.1,133.2c0,8-2.9,17.4-12.8,17.7
		c-3.1,0.1-5.9-0.2-9-0.6V115c0,0,4-0.4,7.9-0.4C267.5,114.5,271.1,122.6,271.1,133.2 M285.6,133.1c0-19-10.5-29.2-27.1-29.2
		c-1.7,0-5,0-9.2,0.6V80.8h-14.2v78.8c6.1,1.5,15.8,2.1,20.5,2.1C272.5,161.7,285.6,152.1,285.6,133.1 M214.2,127.5H192
		c0-7.6,3-14.3,11.1-14.3C212.5,113.3,214.2,120.4,214.2,127.5 M206.9,161.9c9.8,0,18.6-2.2,18.6-2.2v-9.6c-4.5,1-9,1.9-15.1,1.9
		c-8.8,0-17.5-2.6-18.4-15.1h37.6c0.4-22.4-6.2-33.3-25.8-33.3c-18,0-26.8,11.5-26.8,29.7C177,154.7,190.4,161.9,206.9,161.9
		 M182.4,160.6l-25-30.7l23.5-25.2h-17l-21,24V80.8h-14.2v79.9h14.2v-28.9l21,28.9H182.4z M120.3,80.8h-14.2v79.9h14.2V80.8z
		 M85.2,132.8c0,12.2-3.2,18.7-13.1,18.7c-10,0-13.2-6.5-13.2-18.7c0-12.4,3.2-18.8,13.2-18.8C82,114,85.2,120.5,85.2,132.8
		 M100,132.6c0-17.8-10.4-29.2-27.8-29.2c-17.7,0-28,11.4-28,29.2c0,17.4,10.2,29.2,28,29.2C88.4,161.8,100,150,100,132.6 M46.7,98
		V86.1H0v74.5h14.7v-30.2h23.2v-11.8H14.7V98H46.7z"/>
</g>
</svg>
