<?xml version="1.0" standalone="no"?>
<!DOCTYPE svg PUBLIC "-//W3C//DTD SVG 20010904//EN"
 "http://www.w3.org/TR/2001/REC-SVG-20010904/DTD/svg10.dtd">
<svg version="1.0" xmlns="http://www.w3.org/2000/svg"
 width="700.000000pt" height="700.000000pt" viewBox="0 0 700.000000 700.000000"
 preserveAspectRatio="xMidYMid meet">
<metadata>
Created by potrace 1.11, written by Peter Selinger 2001-2013
</metadata>
<g transform="translate(0.000000,700.000000) scale(0.100000,-0.100000)"
fill="#000000" stroke="none">
<path d="M0 3500 l0 -3500 3500 0 3500 0 0 3500 0 3500 -3500 0 -3500 0 0
-3500z m4148 888 l-3 -643 -75 -12 c-41 -7 -129 -15 -196 -19 -202 -12 -328
28 -438 138 -71 71 -100 133 -116 248 -15 105 9 249 55 341 25 48 108 130 158
155 85 44 135 54 260 54 l117 0 0 190 0 190 120 0 120 0 -2 -642z m-3024 532
c175 -45 257 -156 257 -352 1 -141 -49 -235 -161 -304 -35 -22 -57 -41 -53
-48 5 -9 122 -187 310 -473 l15 -23 -149 0 -150 0 -138 230 -138 230 -64 0
-63 0 -2 -227 -3 -228 -117 -3 -118 -3 0 611 0 610 248 0 c215 0 259 -3 326
-20z m888 -274 c94 -17 168 -56 204 -108 49 -70 54 -114 54 -474 l0 -332 -22
-5 c-13 -3 -100 -11 -194 -17 -289 -19 -436 8 -512 95 -47 54 -64 107 -64 202
0 62 4 80 29 124 55 97 160 137 381 146 l142 6 0 44 c0 61 -22 109 -61 128
-59 31 -212 30 -401 -1 l-38 -7 0 90 0 90 88 12 c180 24 288 25 394 7z m2767
4 c74 -10 158 -43 197 -77 79 -70 122 -187 131 -354 l6 -109 -307 0 -306 0 6
-27 c14 -67 38 -114 74 -147 77 -70 194 -81 433 -40 l37 7 0 -81 0 -80 -52
-12 c-106 -22 -263 -32 -350 -20 -201 27 -316 112 -370 275 -30 91 -32 277 -4
370 60 200 180 288 411 303 11 1 53 -3 94 -8z m1614 -11 l67 -11 0 -85 0 -85
-27 5 c-16 4 -76 12 -136 19 -176 20 -272 -11 -272 -87 0 -54 29 -72 173 -106
141 -33 202 -59 250 -107 45 -46 64 -93 64 -162 0 -80 -20 -135 -68 -189 -77
-85 -186 -122 -363 -122 -64 0 -156 7 -208 17 l-93 16 0 89 c0 49 3 89 8 89 4
0 34 -7 67 -15 101 -25 251 -30 317 -11 64 18 88 44 88 93 0 54 -27 71 -166
103 -118 28 -185 55 -233 96 -62 54 -85 104 -84 189 0 150 101 247 284 275 63
10 234 4 332 -11z m-3328 -13 c61 -29 97 -65 127 -131 23 -49 23 -55 23 -410
l0 -360 -117 -3 -118 -3 0 308 c0 183 -4 323 -11 346 -6 21 -21 44 -36 54 -36
24 -121 22 -211 -6 l-72 -22 0 -339 0 -340 -120 0 -120 0 0 460 0 460 110 0
110 0 0 -40 0 -40 39 20 c71 36 202 69 276 69 53 1 82 -5 120 -23z m2685 -81
l0 -105 -42 0 c-72 -1 -178 -19 -224 -40 l-44 -19 0 -331 0 -331 -117 3 -118
3 0 455 0 455 108 3 107 3 0 -40 0 -40 43 24 c64 36 159 60 250 64 l37 1 0
-105z"/>
<path d="M3684 4451 c-81 -37 -124 -130 -124 -272 0 -94 21 -169 62 -215 53
-60 116 -79 227 -68 l61 7 0 283 0 284 -92 0 c-69 0 -104 -5 -134 -19z"/>
<path d="M790 4559 l0 -202 114 5 c171 8 217 42 224 168 6 94 -3 134 -38 174
-37 42 -89 56 -209 56 l-91 0 0 -201z"/>
<path d="M1803 4109 c-47 -14 -73 -52 -73 -110 0 -57 13 -90 43 -109 26 -16
147 -25 211 -16 l46 7 0 120 0 119 -97 -1 c-54 0 -112 -5 -130 -10z"/>
<path d="M4589 4467 c-42 -28 -75 -87 -84 -149 l-7 -48 176 0 176 0 0 39 c0
75 -34 137 -92 167 -43 22 -129 18 -169 -9z"/>
</g>
</svg>
